<svg version="1.1" id="Layer_1" xmlns="http://www.w3.org/2000/svg" xmlns:xlink="http://www.w3.org/1999/xlink" x="0px" y="0px"
	 width="100%" viewBox="0 0 625 625" enable-background="new 0 0 625 625" xml:space="preserve">
<path fill="#687D77" opacity="1.000000" stroke="none" 
	d="
M311.000000,626.000000 
	C207.333359,626.000000 104.166702,626.000000 1.000041,626.000000 
	C1.000028,417.666718 1.000028,209.333450 1.000014,1.000125 
	C209.333237,1.000084 417.666473,1.000084 625.999756,1.000042 
	C625.999878,209.333206 625.999878,417.666412 625.999939,625.999817 
	C521.166687,626.000000 416.333344,626.000000 311.000000,626.000000 
M193.085098,308.640411 
	C192.585327,310.665985 192.660950,313.164001 191.466278,314.619019 
	C188.960663,317.670746 187.437775,320.372559 191.151016,324.008484 
	C186.712280,330.352173 182.404099,336.509308 178.089142,342.676086 
	C191.146240,353.702972 198.252640,352.168854 212.864746,345.621368 
	C211.896515,344.531586 211.011780,343.535828 209.585556,341.930573 
	C212.976685,341.018097 216.721573,341.053528 218.662247,339.199951 
	C220.672577,337.279877 220.933640,333.528290 222.115005,330.131531 
	C225.817093,330.809875 229.207977,329.395782 231.921799,325.871674 
	C235.579010,321.122528 240.469971,320.292175 244.546753,324.193146 
	C247.484375,327.004089 247.663452,325.528931 248.108307,322.927307 
	C248.170197,322.565308 248.641418,322.273285 249.713562,321.038757 
	C250.446884,322.666748 251.065643,324.040436 251.811249,325.695679 
	C256.491852,320.547974 261.126862,319.889801 266.444489,322.084106 
	C267.184998,322.389679 268.807587,321.464874 269.478302,320.657898 
	C269.824921,320.240875 269.242798,318.579193 268.616577,317.921234 
	C267.152252,316.382721 265.407928,315.110687 263.777008,313.730774 
	C264.142151,313.595062 264.507324,313.459381 264.872467,313.323700 
	C264.453735,310.807312 264.035004,308.290924 263.565765,305.470947 
	C265.244934,303.638855 266.543823,299.813812 271.477051,303.404022 
	C270.766174,301.585663 270.073669,300.693359 270.292084,300.237823 
	C272.645416,295.329651 273.334686,290.443878 271.088867,285.252045 
	C270.624023,284.177399 270.725250,282.272614 271.405426,281.422028 
	C272.486145,280.070557 274.455719,278.257141 275.722504,278.481812 
	C278.052185,278.895020 280.144226,280.648041 282.368042,281.860474 
	C283.500977,280.978394 284.644287,280.088226 285.675446,279.285400 
	C287.152313,280.176666 288.465424,280.829071 289.618927,281.694275 
	C292.060486,283.525604 294.459259,285.419800 296.795441,287.383575 
	C298.111084,288.489502 299.471954,290.955750 300.458038,290.783295 
	C303.869202,290.186523 308.477875,289.683899 310.168793,287.356628 
	C314.153503,281.872345 320.430450,280.330658 326.024078,284.872681 
	C327.082397,285.732025 329.338806,286.894623 329.724396,286.528656 
	C333.590912,282.858948 337.492035,286.091675 341.249573,285.685120 
	C343.209229,284.551880 345.532196,282.964478 347.214935,283.477448 
	C349.117096,284.057220 350.537781,286.447113 351.974365,288.207703 
	C352.532776,288.892059 352.285980,290.532196 352.876984,290.843964 
	C357.681671,293.378387 357.861145,297.390045 356.341644,301.720642 
	C358.468140,302.042969 360.171753,302.266357 361.862030,302.565186 
	C364.710449,303.068665 367.634583,304.327789 370.376129,304.001740 
	C375.820862,303.354187 376.990051,298.653961 377.718048,293.854950 
	C380.326782,294.406464 382.568604,294.972778 384.843781,295.320984 
	C385.921539,295.485901 387.694305,295.655975 388.067322,295.098175 
	C389.749786,292.582336 391.658234,292.454773 394.040192,293.797363 
	C396.181549,295.004303 399.291168,295.676849 400.277710,297.501892 
	C402.305267,301.252716 403.889130,304.804962 408.787079,305.289978 
	C411.173309,305.526306 413.538269,306.092651 415.879211,306.650635 
	C423.218506,308.400085 431.784485,304.253693 436.883514,298.623535 
	C440.766235,294.336487 446.208038,291.493347 447.325897,285.096283 
	C447.357758,284.913818 447.889374,284.807617 448.195953,284.685883 
	C452.310364,283.051727 456.426208,281.421173 460.837402,279.672485 
	C461.424591,275.795197 462.115082,271.235657 462.819305,266.585602 
	C460.407990,266.160889 457.942749,266.377777 456.329254,265.308899 
	C452.817657,262.982574 449.798309,259.927216 446.471588,257.304504 
	C441.681274,253.528000 440.353271,246.473801 443.855164,243.418549 
	C444.829529,242.568451 446.149200,240.393173 445.958344,240.206238 
	C444.663757,238.938065 443.105560,237.802826 441.432098,237.105743 
	C440.328705,236.646118 438.675079,237.418335 437.640503,236.897995 
	C433.204773,234.667023 428.977783,232.017288 424.520782,229.834381 
	C422.977448,229.078506 420.909698,228.767883 419.216644,229.053864 
	C412.712982,230.152344 406.209930,233.381927 399.570862,227.716232 
	C400.657806,225.253693 402.229797,222.443985 403.149384,219.434891 
	C404.575562,214.768250 405.702332,209.993027 406.604370,205.197678 
	C406.785004,204.237366 405.657837,202.530457 404.672333,201.947128 
	C401.932129,200.325089 398.856354,199.273621 396.097534,197.677902 
	C394.489929,196.748047 393.266602,194.154785 391.818420,194.113098 
	C383.464905,193.872635 379.172241,187.404617 373.765350,182.777496 
	C372.261932,181.490891 371.685333,178.924744 371.071411,176.831833 
	C369.150787,170.284012 367.415466,163.681824 365.361816,156.202896 
	C361.310425,160.513229 354.345825,157.150513 353.436310,164.073318 
	C350.590363,162.920013 347.872711,161.818680 345.155060,160.717361 
	C345.181458,161.227585 345.207825,161.737808 345.234222,162.248032 
	C343.358337,162.909912 341.495850,164.055527 339.603088,164.108002 
	C337.370300,164.169922 335.127869,163.155334 332.856720,162.866135 
	C331.683563,162.716766 330.223572,162.777267 329.274017,163.361679 
	C327.572906,164.408676 326.159546,165.923248 324.442047,167.400543 
	C326.524200,170.963852 324.681122,173.984344 321.559418,175.880142 
	C316.305176,179.071014 315.778961,172.835754 313.064178,170.940155 
	C309.580811,175.728363 307.563629,176.182144 303.355469,173.288406 
	C304.270966,171.425217 305.186096,169.562683 306.309113,167.277115 
	C302.606964,168.759109 299.774933,169.892776 296.028168,171.392624 
	C294.994659,170.695145 293.389069,169.611588 292.156128,168.779510 
	C291.619263,170.737396 286.400208,172.319016 289.081055,177.008438 
	C287.810852,177.587143 285.656189,178.915604 285.410553,178.625793 
	C283.467010,176.333023 279.062653,176.705978 278.812134,172.486542 
	C278.773712,171.839264 276.855621,171.303558 276.780151,171.261307 
	C275.040466,172.889114 274.081665,174.564941 273.052948,174.609039 
	C269.330414,174.768585 265.585785,174.310165 261.846466,174.235107 
	C260.490356,174.207886 258.685944,174.121933 257.844818,174.891769 
	C254.949097,177.542007 252.388702,180.558640 249.431778,183.723312 
	C254.578217,186.279358 250.538376,189.348373 250.147659,192.154266 
	C249.434113,197.278503 250.915298,203.216003 245.231018,206.747833 
	C244.719452,207.065689 244.508698,208.289917 244.581024,209.053131 
	C244.918335,212.612701 245.117447,216.223740 245.910049,219.692032 
	C246.886520,223.964981 246.556976,229.388046 252.984146,230.057907 
	C253.152191,230.075409 253.276245,230.514709 253.472534,230.844086 
	C252.428711,233.350998 247.903305,233.939087 249.347412,237.987473 
	C249.428986,238.216156 247.820984,239.161865 246.915619,239.601288 
	C245.583511,240.247849 244.177475,240.742767 242.800186,241.295456 
	C239.804092,242.497787 236.632614,244.982605 233.848083,244.606827 
	C229.171799,243.975784 227.287292,244.820328 227.101028,249.740814 
	C227.056793,250.909622 225.512100,252.349548 224.301941,253.052734 
	C223.126572,253.735703 221.494415,253.632568 219.939514,253.895508 
	C219.826385,256.122620 219.729691,258.025940 219.625626,260.074493 
	C214.409012,259.901245 214.929489,255.996964 214.452011,253.215790 
	C208.930939,252.295914 203.605179,251.408600 198.003967,250.475372 
	C197.967682,255.310104 196.548660,260.014496 190.912460,260.788025 
	C186.030075,261.458099 185.146942,264.257843 184.791412,268.225311 
	C184.497299,271.507721 183.831009,274.756805 183.268570,278.418182 
	C184.588699,279.683044 186.565628,281.577209 189.007690,283.917023 
	C181.778763,286.690063 175.806885,289.973114 169.588348,284.243134 
	C168.867828,283.579254 166.501007,284.702026 164.897446,284.996460 
	C164.699158,285.572266 164.500870,286.148102 164.302582,286.723938 
	C167.159302,289.253265 170.241821,291.574005 172.817749,294.362701 
	C176.334610,298.170105 180.269226,295.482422 184.570023,294.951294 
	C182.755539,304.266174 188.518341,300.477539 191.914337,299.891998 
	C192.393295,302.813782 192.800598,305.298553 193.085098,308.640411 
M117.084160,463.375519 
	C117.092804,471.165039 117.092804,471.165009 123.957695,471.172211 
	C131.914703,471.180573 131.914902,471.180603 131.915771,462.960571 
	C131.916229,458.694214 131.915848,454.427856 131.915848,450.161499 
	C135.304688,455.503906 137.886093,460.775940 139.593491,466.317261 
	C141.329712,471.952148 145.485794,470.999146 149.602875,471.237793 
	C153.578110,471.468262 156.218124,470.503082 157.613785,466.351166 
	C159.425980,460.960083 161.782074,455.751831 163.904068,450.464905 
	C164.324036,450.564728 164.744003,450.664551 165.163971,450.764374 
	C165.163971,454.193237 165.136337,457.622375 165.169006,461.050903 
	C165.277466,472.430420 163.741440,470.961792 175.281708,471.233246 
	C179.035141,471.321533 180.251450,469.923248 180.189148,466.293060 
	C180.029037,456.964478 180.137695,447.631287 180.138016,438.299957 
	C180.138458,425.099884 180.134384,425.292694 167.009995,425.038940 
	C162.401276,424.949860 160.111755,426.551575 158.551514,430.822906 
	C155.654312,438.754333 152.206161,446.484467 148.565948,455.321503 
	C145.860062,448.723450 143.684937,443.164154 141.314804,437.689240 
	C134.794983,422.628693 139.421783,425.551239 122.047562,425.078766 
	C117.925278,424.966614 116.962997,426.674957 117.024269,430.414642 
	C117.198944,441.076172 117.084709,451.742401 117.084160,463.375519 
M295.295166,435.586853 
	C295.296936,445.916382 295.374603,456.246796 295.257690,466.574982 
	C295.218933,469.997772 296.565277,470.896942 299.941101,471.309906 
	C308.150940,472.314270 314.017670,469.926453 317.662323,462.156250 
	C319.269897,458.729126 321.818542,455.735809 324.004272,452.590271 
	C325.331451,450.680328 326.781555,448.855835 328.176422,446.992920 
	C329.160706,451.974182 329.108337,456.439331 329.170898,460.902832 
	C329.332550,472.432953 327.237396,471.045929 340.124451,471.208221 
	C343.264374,471.247772 344.169159,469.796997 344.156647,466.957336 
	C344.101501,454.462158 344.176270,441.966248 344.065125,429.471832 
	C344.053345,428.146423 343.520355,426.255859 342.564850,425.609375 
	C338.842224,423.090912 327.767334,425.829803 325.152802,429.642731 
	C320.687805,436.154266 316.228424,442.669647 311.766693,449.183411 
	C310.535675,447.313019 310.325714,445.766754 310.310455,444.218567 
	C310.261261,439.220856 310.472443,434.210480 310.157318,429.231934 
	C310.069122,427.837830 308.741547,425.625519 307.592834,425.336273 
	C297.978882,422.915680 295.299133,425.051605 295.295166,435.586853 
M461.862000,432.653473 
	C461.863770,443.965759 461.943756,455.278900 461.820129,466.589813 
	C461.782532,470.029114 463.030518,471.292480 466.502716,471.225861 
	C475.649078,471.050323 484.804199,471.291962 493.948364,471.065430 
	C496.702423,470.997192 499.534729,470.221405 502.150513,469.271942 
	C507.028870,467.501221 510.373199,464.110992 510.737000,458.690857 
	C511.086670,453.480377 507.916840,450.440979 503.558533,448.348572 
	C503.053497,448.106079 502.602081,447.751862 502.045319,447.398315 
	C510.635590,438.944794 508.172699,429.367096 496.900574,426.214630 
	C494.531982,425.552185 492.000061,425.246338 489.535217,425.198517 
	C482.550812,425.062927 475.562164,425.139587 468.575165,425.145050 
	C461.979614,425.150177 461.979614,425.157074 461.862000,432.653473 
M189.248718,438.853790 
	C184.794083,454.132965 190.488083,467.350800 203.759842,470.700684 
	C209.427002,472.131073 215.714127,472.423279 221.522079,471.683167 
	C231.346283,470.431305 238.476624,465.021881 240.879700,454.809479 
	C243.993317,441.577515 238.325119,429.953125 226.667282,425.959442 
	C213.912827,421.590118 194.906052,423.917236 189.248718,438.853790 
M410.300903,429.936188 
	C410.299133,441.600586 410.469543,453.268829 410.210388,464.927521 
	C410.107544,469.552917 411.281189,471.447418 416.316772,471.286102 
	C427.469849,470.928864 438.647400,470.976654 449.804230,471.269989 
	C454.384644,471.390411 455.429230,469.631409 455.410065,465.429291 
	C455.390961,461.245300 453.942200,459.924469 449.829773,460.061401 
	C441.767853,460.329895 433.690674,460.140320 425.934631,460.140320 
	C424.404816,454.816010 425.669159,452.690582 430.681335,453.105682 
	C434.818726,453.448364 439.023315,452.945587 443.168549,453.237610 
	C447.335724,453.531189 448.265076,451.583038 448.213104,447.895203 
	C448.161835,444.254791 447.777802,441.774261 443.090759,442.057983 
	C437.323486,442.407104 431.519012,442.141357 425.818848,442.141357 
	C425.161865,436.273254 425.161499,436.222046 429.922485,436.188934 
	C436.920807,436.140289 443.926971,435.979706 450.915619,436.243347 
	C455.203186,436.405121 455.333496,433.976929 455.326538,430.862885 
	C455.319305,427.615967 455.303497,424.986847 450.719818,425.069885 
	C438.726044,425.287201 426.725494,425.191498 414.728363,425.110596 
	C411.893188,425.091492 410.204315,425.939301 410.300903,429.936188 
M359.275635,471.175751 
	C363.422546,471.841797 365.196411,469.916626 365.992615,465.904724 
	C367.319397,459.219513 369.174286,452.639404 370.794800,446.012115 
	C373.067810,436.716278 376.143707,434.820892 386.294312,436.938446 
	C386.294312,444.931488 386.245544,453.050476 386.306091,461.168671 
	C386.390686,472.513245 384.816223,471.018097 397.027863,471.209198 
	C399.929413,471.254608 401.323944,470.330597 401.306732,467.250336 
	C401.235901,454.599762 401.221222,441.948059 401.319000,429.297821 
	C401.345062,425.924896 399.779846,425.027130 396.708557,425.100433 
	C390.719360,425.243317 384.724213,425.115540 378.731781,425.149872 
	C366.169556,425.221893 359.322449,430.594116 356.240479,442.824677 
	C354.614136,449.278687 353.073700,455.754272 351.493073,462.219788 
	C349.304474,471.172272 349.303925,471.172150 359.275635,471.175751 
M263.839294,454.494781 
	C263.839294,448.559265 263.839294,442.623779 263.839294,436.172821 
	C271.603149,436.172821 278.730865,435.928223 285.831482,436.261322 
	C290.346161,436.473083 290.588531,434.064087 290.592133,430.694031 
	C290.595734,427.290619 290.210571,424.966644 285.794128,425.065277 
	C275.146057,425.303009 264.485748,425.294830 253.837326,425.064758 
	C249.689697,424.975159 248.757126,426.768707 248.810104,430.443756 
	C248.956482,440.595642 248.765503,450.752106 248.882812,460.904785 
	C249.016602,472.483246 246.586166,471.227142 260.296661,471.001129 
	C261.491455,470.981445 263.505402,468.804474 263.662354,467.457520 
	C264.121643,463.515442 263.834167,459.486389 263.839294,454.494781 
z"/>
<path fill="#FEFEFE" opacity="1.000000" stroke="none" 
	d="
M193.146515,308.211853 
	C192.800598,305.298553 192.393295,302.813782 191.914337,299.891998 
	C188.518341,300.477539 182.755539,304.266174 184.570023,294.951294 
	C180.269226,295.482422 176.334610,298.170105 172.817749,294.362701 
	C170.241821,291.574005 167.159302,289.253265 164.302582,286.723938 
	C164.500870,286.148102 164.699158,285.572266 164.897446,284.996460 
	C166.501007,284.702026 168.867828,283.579254 169.588348,284.243134 
	C175.806885,289.973114 181.778763,286.690063 189.007690,283.917023 
	C186.565628,281.577209 184.588699,279.683044 183.268570,278.418182 
	C183.831009,274.756805 184.497299,271.507721 184.791412,268.225311 
	C185.146942,264.257843 186.030075,261.458099 190.912460,260.788025 
	C196.548660,260.014496 197.967682,255.310104 198.003967,250.475372 
	C203.605179,251.408600 208.930939,252.295914 214.452011,253.215790 
	C214.929489,255.996964 214.409012,259.901245 219.625626,260.074493 
	C219.729691,258.025940 219.826385,256.122620 219.939514,253.895508 
	C221.494415,253.632568 223.126572,253.735703 224.301941,253.052734 
	C225.512100,252.349548 227.056793,250.909622 227.101028,249.740814 
	C227.287292,244.820328 229.171799,243.975784 233.848083,244.606827 
	C236.632614,244.982605 239.804092,242.497787 242.800186,241.295456 
	C244.177475,240.742767 245.583511,240.247849 246.915619,239.601288 
	C247.820984,239.161865 249.428986,238.216156 249.347412,237.987473 
	C247.903305,233.939087 252.428711,233.350998 253.472534,230.844086 
	C253.276245,230.514709 253.152191,230.075409 252.984146,230.057907 
	C246.556976,229.388046 246.886520,223.964981 245.910049,219.692032 
	C245.117447,216.223740 244.918335,212.612701 244.581024,209.053131 
	C244.508698,208.289917 244.719452,207.065689 245.231018,206.747833 
	C250.915298,203.216003 249.434113,197.278503 250.147659,192.154266 
	C250.538376,189.348373 254.578217,186.279358 249.431778,183.723312 
	C252.388702,180.558640 254.949097,177.542007 257.844818,174.891769 
	C258.685944,174.121933 260.490356,174.207886 261.846466,174.235107 
	C265.585785,174.310165 269.330414,174.768585 273.052948,174.609039 
	C274.081665,174.564941 275.040466,172.889114 276.780151,171.261307 
	C276.855621,171.303558 278.773712,171.839264 278.812134,172.486542 
	C279.062653,176.705978 283.467010,176.333023 285.410553,178.625793 
	C285.656189,178.915604 287.810852,177.587143 289.081055,177.008423 
	C286.400208,172.319016 291.619263,170.737396 292.156128,168.779510 
	C293.389069,169.611588 294.994659,170.695145 296.028168,171.392624 
	C299.774933,169.892776 302.606964,168.759109 306.309113,167.277115 
	C305.186096,169.562683 304.270966,171.425217 303.355469,173.288406 
	C307.563629,176.182144 309.580811,175.728363 313.064178,170.940155 
	C315.778961,172.835754 316.305176,179.071014 321.559418,175.880142 
	C324.681122,173.984344 326.524200,170.963852 324.442047,167.400543 
	C326.159546,165.923248 327.572906,164.408676 329.274017,163.361679 
	C330.223572,162.777267 331.683563,162.716766 332.856720,162.866135 
	C335.127869,163.155334 337.370300,164.169922 339.603088,164.108002 
	C341.495850,164.055527 343.358337,162.909912 345.234222,162.248032 
	C345.207825,161.737808 345.181458,161.227585 345.155060,160.717361 
	C347.872711,161.818680 350.590363,162.920013 353.436310,164.073318 
	C354.345825,157.150513 361.310425,160.513229 365.361816,156.202896 
	C367.415466,163.681824 369.150787,170.284012 371.071411,176.831833 
	C371.685333,178.924744 372.261932,181.490891 373.765350,182.777496 
	C379.172241,187.404617 383.464905,193.872635 391.818420,194.113098 
	C393.266602,194.154785 394.489929,196.748047 396.097534,197.677902 
	C398.856354,199.273621 401.932129,200.325089 404.672333,201.947128 
	C405.657837,202.530457 406.785004,204.237366 406.604370,205.197678 
	C405.702332,209.993027 404.575562,214.768250 403.149384,219.434891 
	C402.229797,222.443985 400.657806,225.253693 399.570862,227.716232 
	C406.209930,233.381927 412.712982,230.152344 419.216644,229.053864 
	C420.909698,228.767883 422.977448,229.078506 424.520782,229.834381 
	C428.977783,232.017288 433.204773,234.667023 437.640503,236.897995 
	C438.675079,237.418335 440.328705,236.646118 441.432098,237.105743 
	C443.105560,237.802826 444.663757,238.938065 445.958344,240.206238 
	C446.149200,240.393173 444.829529,242.568451 443.855164,243.418549 
	C440.353271,246.473801 441.681274,253.528000 446.471588,257.304504 
	C449.798309,259.927216 452.817657,262.982574 456.329254,265.308899 
	C457.942749,266.377777 460.407990,266.160889 462.819305,266.585602 
	C462.115082,271.235657 461.424591,275.795197 460.837402,279.672485 
	C456.426208,281.421173 452.310364,283.051727 448.195953,284.685883 
	C447.889374,284.807617 447.357758,284.913818 447.325897,285.096283 
	C446.208038,291.493347 440.766235,294.336487 436.883514,298.623535 
	C431.784485,304.253693 423.218506,308.400085 415.879211,306.650635 
	C413.538269,306.092651 411.173309,305.526306 408.787079,305.289978 
	C403.889130,304.804962 402.305267,301.252716 400.277710,297.501892 
	C399.291168,295.676849 396.181549,295.004303 394.040192,293.797363 
	C391.658234,292.454773 389.749786,292.582336 388.067322,295.098175 
	C387.694305,295.655975 385.921539,295.485901 384.843781,295.320984 
	C382.568604,294.972778 380.326782,294.406464 377.718048,293.854950 
	C376.990051,298.653961 375.820862,303.354187 370.376129,304.001740 
	C367.634583,304.327789 364.710449,303.068665 361.862030,302.565186 
	C360.171753,302.266357 358.468140,302.042969 356.341644,301.720642 
	C357.861145,297.390045 357.681671,293.378387 352.876984,290.843964 
	C352.285980,290.532196 352.532776,288.892059 351.974365,288.207703 
	C350.537781,286.447113 349.117096,284.057220 347.214935,283.477448 
	C345.532196,282.964478 343.209229,284.551880 341.249573,285.685120 
	C337.492035,286.091675 333.590912,282.858948 329.724396,286.528656 
	C329.338806,286.894623 327.082397,285.732025 326.024078,284.872681 
	C320.430450,280.330658 314.153503,281.872345 310.168793,287.356628 
	C308.477875,289.683899 303.869202,290.186523 300.458038,290.783295 
	C299.471954,290.955750 298.111084,288.489502 296.795441,287.383575 
	C294.459259,285.419800 292.060486,283.525604 289.618927,281.694275 
	C288.465424,280.829071 287.152313,280.176666 285.675446,279.285400 
	C284.644287,280.088226 283.500977,280.978394 282.368042,281.860474 
	C280.144226,280.648041 278.052185,278.895020 275.722504,278.481812 
	C274.455719,278.257141 272.486145,280.070557 271.405426,281.422028 
	C270.725250,282.272614 270.624023,284.177399 271.088867,285.252045 
	C273.334686,290.443878 272.645416,295.329651 270.292084,300.237823 
	C270.073669,300.693359 270.766174,301.585663 271.477051,303.404022 
	C266.543823,299.813812 265.244934,303.638855 263.565765,305.470947 
	C264.035004,308.290924 264.453735,310.807312 264.872467,313.323700 
	C264.507324,313.459381 264.142151,313.595062 263.777008,313.730774 
	C265.407928,315.110687 267.152252,316.382721 268.616577,317.921234 
	C269.242798,318.579193 269.824921,320.240875 269.478302,320.657898 
	C268.807587,321.464874 267.184998,322.389679 266.444489,322.084106 
	C261.126862,319.889801 256.491852,320.547974 251.811249,325.695679 
	C251.065643,324.040436 250.446884,322.666748 249.713562,321.038757 
	C248.641418,322.273285 248.170197,322.565308 248.108307,322.927307 
	C247.663452,325.528931 247.484375,327.004089 244.546753,324.193146 
	C240.469971,320.292175 235.579010,321.122528 231.921799,325.871674 
	C229.207977,329.395782 225.817093,330.809875 222.115005,330.131531 
	C220.933640,333.528290 220.672577,337.279877 218.662247,339.199951 
	C216.721573,341.053528 212.976685,341.018097 209.585556,341.930573 
	C211.011780,343.535828 211.896515,344.531586 212.864746,345.621368 
	C198.252640,352.168854 191.146240,353.702972 178.089142,342.676086 
	C182.404099,336.509308 186.712280,330.352173 191.151016,324.008484 
	C187.437775,320.372559 188.960663,317.670746 191.466278,314.619019 
	C192.660950,313.164001 192.585327,310.665985 193.146515,308.211853 
z"/>
<path fill="#FBFCFC" opacity="1.000000" stroke="none" 
	d="
M117.084152,462.891174 
	C117.084709,451.742401 117.198944,441.076172 117.024269,430.414642 
	C116.962997,426.674957 117.925278,424.966614 122.047562,425.078766 
	C139.421783,425.551239 134.794983,422.628693 141.314804,437.689240 
	C143.684937,443.164154 145.860062,448.723450 148.565948,455.321503 
	C152.206161,446.484467 155.654312,438.754333 158.551514,430.822906 
	C160.111755,426.551575 162.401276,424.949860 167.009995,425.038940 
	C180.134384,425.292694 180.138458,425.099884 180.138016,438.299957 
	C180.137695,447.631287 180.029037,456.964478 180.189148,466.293060 
	C180.251450,469.923248 179.035141,471.321533 175.281708,471.233246 
	C163.741440,470.961792 165.277466,472.430420 165.169006,461.050903 
	C165.136337,457.622375 165.163971,454.193237 165.163971,450.764374 
	C164.744003,450.664551 164.324036,450.564728 163.904068,450.464905 
	C161.782074,455.751831 159.425980,460.960083 157.613785,466.351166 
	C156.218124,470.503082 153.578110,471.468262 149.602875,471.237793 
	C145.485794,470.999146 141.329712,471.952148 139.593491,466.317261 
	C137.886093,460.775940 135.304688,455.503906 131.915848,450.161499 
	C131.915848,454.427856 131.916229,458.694214 131.915771,462.960571 
	C131.914902,471.180603 131.914703,471.180573 123.957695,471.172211 
	C117.092804,471.165009 117.092804,471.165039 117.084152,462.891174 
z"/>
<path fill="#FBFBFB" opacity="1.000000" stroke="none" 
	d="
M295.295166,435.102844 
	C295.299133,425.051605 297.978882,422.915680 307.592834,425.336273 
	C308.741547,425.625519 310.069122,427.837830 310.157318,429.231934 
	C310.472443,434.210480 310.261261,439.220856 310.310455,444.218567 
	C310.325714,445.766754 310.535675,447.313019 311.766693,449.183411 
	C316.228424,442.669647 320.687805,436.154266 325.152802,429.642731 
	C327.767334,425.829803 338.842224,423.090912 342.564850,425.609375 
	C343.520355,426.255859 344.053345,428.146423 344.065125,429.471832 
	C344.176270,441.966248 344.101501,454.462158 344.156647,466.957336 
	C344.169159,469.796997 343.264374,471.247772 340.124451,471.208221 
	C327.237396,471.045929 329.332550,472.432953 329.170898,460.902832 
	C329.108337,456.439331 329.160706,451.974182 328.176422,446.992920 
	C326.781555,448.855835 325.331451,450.680328 324.004272,452.590271 
	C321.818542,455.735809 319.269897,458.729126 317.662323,462.156250 
	C314.017670,469.926453 308.150940,472.314270 299.941101,471.309906 
	C296.565277,470.896942 295.218933,469.997772 295.257690,466.574982 
	C295.374603,456.246796 295.296936,445.916382 295.295166,435.102844 
z"/>
<path fill="#FBFCFC" opacity="1.000000" stroke="none" 
	d="
M461.862152,432.176819 
	C461.979614,425.157074 461.979614,425.150177 468.575165,425.145050 
	C475.562164,425.139587 482.550812,425.062927 489.535217,425.198517 
	C492.000061,425.246338 494.531982,425.552185 496.900574,426.214630 
	C508.172699,429.367096 510.635590,438.944794 502.045319,447.398315 
	C502.602081,447.751862 503.053497,448.106079 503.558533,448.348572 
	C507.916840,450.440979 511.086670,453.480377 510.737000,458.690857 
	C510.373199,464.110992 507.028870,467.501221 502.150513,469.271942 
	C499.534729,470.221405 496.702423,470.997192 493.948364,471.065430 
	C484.804199,471.291962 475.649078,471.050323 466.502716,471.225861 
	C463.030518,471.292480 461.782532,470.029114 461.820129,466.589813 
	C461.943756,455.278900 461.863770,443.965759 461.862152,432.176819 
M485.428070,460.618408 
	C487.258575,460.593933 489.241455,461.000397 490.876221,460.422363 
	C492.476196,459.856628 493.721405,458.287598 495.122345,457.158936 
	C493.850525,455.859253 492.677063,453.577789 491.289001,453.438782 
	C486.600098,452.969238 481.835052,453.259857 477.186768,453.259857 
	C477.186768,456.049225 477.186768,458.107300 477.186768,460.618286 
	C479.891479,460.618286 482.198181,460.618286 485.428070,460.618408 
M491.077637,437.073517 
	C486.507538,436.520142 481.937439,435.966797 477.149292,435.387024 
	C477.149292,438.403931 477.149292,440.264740 477.149292,442.581818 
	C480.938751,442.581818 484.373108,442.673401 487.800171,442.554321 
	C490.816132,442.449493 492.473816,441.067505 491.077637,437.073517 
z"/>
<path fill="#FBFBFB" opacity="1.000000" stroke="none" 
	d="
M189.398529,438.495514 
	C194.906052,423.917236 213.912827,421.590118 226.667282,425.959442 
	C238.325119,429.953125 243.993317,441.577515 240.879700,454.809479 
	C238.476624,465.021881 231.346283,470.431305 221.522079,471.683167 
	C215.714127,472.423279 209.427002,472.131073 203.759842,470.700684 
	C190.488083,467.350800 184.794083,454.132965 189.398529,438.495514 
M217.729797,435.423859 
	C216.741699,435.330017 215.752655,435.146393 214.765640,435.156647 
	C207.292252,435.234009 202.946869,440.459473 203.297806,448.900940 
	C203.642212,457.185211 208.130127,461.636169 215.672791,461.174072 
	C221.308380,460.828827 224.682739,457.559387 225.798874,451.362823 
	C227.120804,444.023773 224.554840,438.539398 217.729797,435.423859 
z"/>
<path fill="#FBFBFB" opacity="1.000000" stroke="none" 
	d="
M410.306732,429.483185 
	C410.204315,425.939301 411.893188,425.091492 414.728363,425.110596 
	C426.725494,425.191498 438.726044,425.287201 450.719818,425.069885 
	C455.303497,424.986847 455.319305,427.615967 455.326538,430.862885 
	C455.333496,433.976929 455.203186,436.405121 450.915619,436.243347 
	C443.926971,435.979706 436.920807,436.140289 429.922485,436.188934 
	C425.161499,436.222046 425.161865,436.273254 425.818848,442.141357 
	C431.519012,442.141357 437.323486,442.407104 443.090759,442.057983 
	C447.777802,441.774261 448.161835,444.254791 448.213104,447.895203 
	C448.265076,451.583038 447.335724,453.531189 443.168549,453.237610 
	C439.023315,452.945587 434.818726,453.448364 430.681335,453.105682 
	C425.669159,452.690582 424.404816,454.816010 425.934631,460.140320 
	C433.690674,460.140320 441.767853,460.329895 449.829773,460.061401 
	C453.942200,459.924469 455.390961,461.245300 455.410065,465.429291 
	C455.429230,469.631409 454.384644,471.390411 449.804230,471.269989 
	C438.647400,470.976654 427.469849,470.928864 416.316772,471.286102 
	C411.281189,471.447418 410.107544,469.552917 410.210388,464.927521 
	C410.469543,453.268829 410.299133,441.600586 410.306732,429.483185 
z"/>
<path fill="#FBFBFB" opacity="1.000000" stroke="none" 
	d="
M358.818787,471.175903 
	C349.303925,471.172150 349.304474,471.172272 351.493073,462.219788 
	C353.073700,455.754272 354.614136,449.278687 356.240479,442.824677 
	C359.322449,430.594116 366.169556,425.221893 378.731781,425.149872 
	C384.724213,425.115540 390.719360,425.243317 396.708557,425.100433 
	C399.779846,425.027130 401.345062,425.924896 401.319000,429.297821 
	C401.221222,441.948059 401.235901,454.599762 401.306732,467.250336 
	C401.323944,470.330597 399.929413,471.254608 397.027863,471.209198 
	C384.816223,471.018097 386.390686,472.513245 386.306091,461.168671 
	C386.245544,453.050476 386.294312,444.931488 386.294312,436.938446 
	C376.143707,434.820892 373.067810,436.716278 370.794800,446.012115 
	C369.174286,452.639404 367.319397,459.219513 365.992615,465.904724 
	C365.196411,469.916626 363.422546,471.841797 358.818787,471.175903 
z"/>
<path fill="#FBFBFB" opacity="1.000000" stroke="none" 
	d="
M263.839294,454.993103 
	C263.834167,459.486389 264.121643,463.515442 263.662354,467.457520 
	C263.505402,468.804474 261.491455,470.981445 260.296661,471.001129 
	C246.586166,471.227142 249.016602,472.483246 248.882812,460.904785 
	C248.765503,450.752106 248.956482,440.595642 248.810104,430.443756 
	C248.757126,426.768707 249.689697,424.975159 253.837326,425.064758 
	C264.485748,425.294830 275.146057,425.303009 285.794128,425.065277 
	C290.210571,424.966644 290.595734,427.290619 290.592133,430.694031 
	C290.588531,434.064087 290.346161,436.473083 285.831482,436.261322 
	C278.730865,435.928223 271.603149,436.172821 263.839294,436.172821 
	C263.839294,442.623779 263.839294,448.559265 263.839294,454.993103 
z"/>
<path fill="#758883" opacity="1.000000" stroke="none" 
	d="
M484.966492,460.618347 
	C482.198181,460.618286 479.891479,460.618286 477.186768,460.618286 
	C477.186768,458.107300 477.186768,456.049225 477.186768,453.259857 
	C481.835052,453.259857 486.600098,452.969238 491.289001,453.438782 
	C492.677063,453.577789 493.850525,455.859253 495.122345,457.158936 
	C493.721405,458.287598 492.476196,459.856628 490.876221,460.422363 
	C489.241455,461.000397 487.258575,460.593933 484.966492,460.618347 
z"/>
<path fill="#768984" opacity="1.000000" stroke="none" 
	d="
M491.296082,437.420776 
	C492.473816,441.067505 490.816132,442.449493 487.800171,442.554321 
	C484.373108,442.673401 480.938751,442.581818 477.149292,442.581818 
	C477.149292,440.264740 477.149292,438.403931 477.149292,435.387024 
	C481.937439,435.966797 486.507538,436.520142 491.296082,437.420776 
z"/>
<path fill="#6C817B" opacity="1.000000" stroke="none" 
	d="
M218.102432,435.566589 
	C224.554840,438.539398 227.120804,444.023773 225.798874,451.362823 
	C224.682739,457.559387 221.308380,460.828827 215.672791,461.174072 
	C208.130127,461.636169 203.642212,457.185211 203.297806,448.900940 
	C202.946869,440.459473 207.292252,435.234009 214.765640,435.156647 
	C215.752655,435.146393 216.741699,435.330017 218.102432,435.566589 
z"/>
</svg>